#!OML:ASF F:\VICON\USERDATA\INSTALL\rory3\rory3.ASF
:FULLY-SPECIFIED
:DEGREES
480
root 0.27733 16.8095 16.936 -161.051 -49.5488 -182.421
lowerback -13.2032 1.23716 -0.94506
upperback -8.78137 0.963536 0.282752
thorax -1.85185 0.197769 0.94417
lowerneck -8.58983 -12.3757 -13.1664
upperneck 29.4955 -19.4383 6.38918
head 13.2721 -9.97998 1.52142
rclavicle 8.54774e-015 -5.96354e-015
rhumerus 359.448 -29.7951 -416.18
rradius 10.5315
rwrist 31.8749
rhand -11.0799 8.21436
rfingers 7.12502
rthumb 14.9435 -21.2265
lclavicle 8.54774e-015 -5.96354e-015
lhumerus -20.6873 5.53717 9.86326
lradius 19.5828
lwrist -44.5126
lhand -1.98692 18.073
lfingers 7.12502
lthumb 23.6859 46.6337
rfemur -55.9624 -27.2413 26.4734
rtibia 39.672
rfoot -6.43631 -34.1381
rtoes 33.605
lfemur -8.17321 -5.88644 -21.5999
ltibia 19.4535
lfoot -40.4229 28.5117
ltoes -1.03665
481
root 0.291789 16.7988 16.8953 -161.878 -49.657 -180.836
lowerback -13.1013 1.61785 0.292058
upperback -8.89762 1.32809 0.506771
thorax -2.00788 0.32878 0.521531
lowerneck -8.57938 -12.653 -13.2246
upperneck 29.1442 -19.7382 6.39683
head 13.1673 -10.0985 1.48607
rclavicle -1.50232e-013 -3.61788e-014
rhumerus 359.045 -13.05 -416.359
rradius 12.73
rwrist 17.0427
rhand -10.57 7.16725
rfingers 7.12502
rthumb 15.4347 -22.2365
lclavicle -1.50232e-013 -3.61788e-014
lhumerus -20.5863 5.65079 9.76241
lradius 19.665
lwrist -44.0963
lhand -1.55931 18.4826
lfingers 7.12502
lthumb 24.096 46.9896
rfemur -57.1379 -27.3325 28.4522
rtibia 40.3466
rfoot -5.68236 -34.1686
rtoes 32.5359
lfemur -9.20166 -6.06745 -20.2769
ltibia 20.7022
lfoot -41.4986 28.0539
ltoes -0.46934
482
root 0.296973 16.7748 16.8494 -160.769 -49.4736 -181.402
lowerback -13.513 1.92413 -0.00959068
upperback -9.06148 1.73124 0.306266
thorax -1.97061 0.525255 0.534443
lowerneck -8.34002 -13.0242 -13.2487
upperneck 28.744 -20.2137 6.38252
head 13.0105 -10.3065 1.42411
rclavicle 5.41688e-014 6.36111e-015
rhumerus 358.667 -2.98645 -416.668
rradius 14.9887
rwrist 8.48843
rhand -10.1665 6.79499
rfingers 7.12502
rthumb 15.8233 -22.5784
lclavicle 5.41688e-014 6.36111e-015
lhumerus -20.154 6.53896 9.66698
lradius 19.5571
lwrist -44.6768
lhand -1.25307 19.0279
lfingers 7.12502
lthumb 24.3896 47.4957
rfemur -58.9618 -27.6569 29.1763
rtibia 41.1154
rfoot -5.58088 -34.359
rtoes 33.0938
lfemur -10.5365 -6.57882 -20.505
ltibia 21.9773
lfoot -42.5691 27.8673
ltoes -0.151367
483
root 0.300223 16.7485 16.7936 -159.616 -49.4306 -182.005
lowerback -13.9729 2.03418 -0.397998
upperback -9.25528 1.87899 0.196221
thorax -1.94629 0.59687 0.663974
lowerneck -8.18572 -13.2501 -13.3543
upperneck 28.4514 -20.4785 6.38869
head 12.9044 -10.4288 1.41114
rclavicle 8.24956e-015 8.74653e-015
rhumerus 358.669 4.63585 -417.111
rradius 17.2807
rwrist 2.38087
rhand -9.25115 6.58769
rfingers 7.12502
rthumb 16.7047 -22.7136
lclavicle 8.24956e-015 8.74653e-015
lhumerus -20.171 6.17718 9.61105
lradius 19.577
lwrist -44.1012
lhand -1.28714 19.6911
lfingers 7.12502
lthumb 24.357 48.1632
rfemur -60.8553 -27.9974 29.9358
rtibia 41.9928
rfoot -6.23256 -34.875
rtoes 34.1853
lfemur -11.6965 -6.99875 -20.6906
ltibia 22.8455
lfoot -43.0185 28.1013
ltoes -1.06694
484
root 0.322719 16.718 16.7121 -159.183 -49.255 -182.073
lowerback -14.0995 2.11429 -0.865018
upperback -9.3618 2.01737 0.317364
thorax -2.0203 0.683187 1.07069
lowerneck -8.11235 -13.4257 -13.4956
upperneck 28.2152 -20.655 6.38003
head 12.8307 -10.5137 1.4062
rclavicle 4.04527e-014 2.82274e-014
rhumerus 358.835 11.7198 -417.31
rradius 19.7608
rwrist -2.73793
rhand -8.60013 6.19811
rfingers 7.12502
rthumb 17.3313 -23.0492
lclavicle 4.04527e-014 2.82274e-014
lhumerus -20.2333 7.05652 9.23634
lradius 19.3606
lwrist -44.6648
lhand -1.0997 19.7884
lfingers 7.12502
lthumb 24.5366 48.2363
rfemur -62.1489 -27.4806 30.5094
rtibia 42.8924
rfoot -7.68155 -36.2183
rtoes 35.5102
lfemur -12.3534 -7.32947 -20.4626
ltibia 23.3892
lfoot -43.6408 28.286
ltoes -1.71684
485
root 0.264763 16.6933 16.7527 -158.668 -50.9179 -182.461
lowerback -13.839 2.06765 0.903132
upperback -9.4366 1.77486 -0.0570807
thorax -2.15455 0.473758 -0.346125
lowerneck -8.17055 -13.6509 -13.4064
upperneck 27.9749 -20.8722 6.24914
head 12.7413 -10.5985 1.31058
rclavicle -3.18552e-014 3.57812e-015
rhumerus 359.004 17.6579 -417.357
rradius 22.1757
rwrist -7.61625
rhand -8.65369 6.31762
rfingers 7.12502
rthumb 17.2798 -22.9342
lclavicle -3.18552e-014 3.57812e-015
lhumerus -20.0612 7.40605 9.14962
lradius 19.3588
lwrist -44.9764
lhand -0.35384 19.9053
lfingers 7.12502
lthumb 25.2514 48.2543
rfemur -64.4663 -31.473 33.1607
rtibia 43.5673
rfoot -6.13525 -35.5208
rtoes 34.9
lfemur -12.8222 -8.39032 -20.3741
ltibia 23.9497
lfoot -43.1816 28.2531
ltoes -2.80438
486
root 0.262752 16.6713 16.6648 -158.368 -51.3811 -182.795
lowerback -13.8951 2.02727 0.601181
upperback -9.43248 1.75716 -0.0998772
thorax -2.12936 0.479419 -0.222396
lowerneck -7.99248 -13.8232 -13.3187
upperneck 27.7395 -21.11 6.23938
head 12.6251 -10.6993 1.27396
rclavicle -5.56597e-015 1.90833e-014
rhumerus 359.3 21.4295 -417.423
rradius 24.4173
rwrist -9.70686
rhand -7.47214 6.31047
rfingers 7.12502
rthumb 18.4167 -22.8377
lclavicle -5.56597e-015 1.90833e-014
lhumerus -19.9033 7.28618 9.03163
lradius 19.3295
lwrist -45.0292
lhand -0.254526 19.878
lfingers 7.12502
lthumb 25.3466 48.2136
rfemur -65.5145 -32.2978 34.2894
rtibia 43.9335
rfoot -7.36719 -37.2507
rtoes 36.7539
lfemur -12.9504 -8.58893 -20.1852
ltibia 24.3584
lfoot -43.1158 28.0048
ltoes -3.64149
487
root 0.30522 16.6627 16.6085 -158.993 -50.7408 -182.031
lowerback -13.139 2.46266 0.686459
upperback -9.57607 2.33676 -0.0408759
thorax -2.67931 0.767423 -0.16484
lowerneck -7.8615 -14.0729 -13.3148
upperneck 27.7068 -21.4986 6.23119
head 12.6298 -10.8743 1.20789
rclavicle 3.71727e-014 0
rhumerus 359.503 25.3041 -417.352
rradius 26.9316
rwrist -13.0428
rhand -6.66408 6.57428
rfingers 7.12502
rthumb 19.1939 -22.4986
lclavicle 3.71727e-014 0
lhumerus -19.577 8.6327 8.48172
lradius 18.9047
lwrist -46.0788
lhand -0.50717 19.3465
lfingers 7.12502
lthumb 25.1045 47.7161
rfemur -66.0979 -31.083 35.1811
rtibia 44.3881
rfoot -8.90292 -40.131
rtoes 38.5722
lfemur -12.3152 -8.99457 -19.6088
ltibia 23.43
lfoot -44.1936 28.2072
ltoes -2.20705
488
root 0.345124 16.6533 16.5462 -159.797 -49.67 -181.357
lowerback -12.396 2.8696 0.495729
upperback -9.37876 2.9476 0.202445
thorax -2.88518 1.10959 0.233362
lowerneck -8.44654 -14.351 -13.2993
upperneck 27.7943 -21.7227 5.98285
head 12.7718 -10.9506 1.02209
rclavicle 6.14742e-014 3.85642e-014
rhumerus 360.5 28.7465 -416.71
rradius 29.4213
rwrist -15.6799
rhand -5.34408 7.02989
rfingers 7.12502
rthumb 20.4628 -21.9118
lclavicle 6.14742e-014 3.85642e-014
lhumerus -19.5874 8.72951 8.51054
lradius 18.8297
lwrist -45.5981
lhand -0.345885 19.8423
lfingers 7.12502
lthumb 25.259 48.1902
rfemur -66.0338 -29.6172 35.6847
rtibia 44.5513
rfoot -12.3162 -42.0082
rtoes 41.8325
lfemur -11.1258 -9.11557 -19.3214
ltibia 22.239
lfoot -45.3646 28.4248
ltoes -0.521266
489
root 0.314669 16.672 16.2728 -160.275 -51.0362 -183.767
lowerback -12.1423 1.63152 -2.94529
upperback -8.0106 1.81413 0.779494
thorax -1.72377 0.772074 2.65908
lowerneck -8.96124 -14.4763 -13.5105
upperneck 27.5135 -21.6756 5.99152
head 12.7835 -10.8997 1.02704
rclavicle -7.7526e-015 -1.66979e-014
rhumerus 362.176 32.9743 -415.343
rradius 32.2867
rwrist -19.1949
rhand -4.54565 6.71827
rfingers 7.12502
rthumb 21.2299 -22.1391
lclavicle -7.7526e-015 -1.66979e-014
lhumerus -20.074 9.11086 8.57045
lradius 18.9214
lwrist -45.6307
lhand 0.474562 20.6586
lfingers 7.12502
lthumb 26.0448 48.8933
rfemur -63.6395 -32.9125 34.5136
rtibia 45.0036
rfoot -17.077 -41.3376
rtoes 45.347
lfemur -6.98259 -7.19596 -20.1118
ltibia 20.7005
lfoot -41.7841 27.3616
ltoes -4.92297
490
root 0.330718 16.6578 16.2043 -160.014 -50.8194 -183.61
lowerback -12.3689 1.68152 -3.22259
upperback -7.96639 1.9108 1.00367
thorax -1.58418 0.832517 3.0655
lowerneck -8.9026 -14.4496 -13.4267
upperneck 26.8808 -21.5254 6.10767
head 12.503 -10.8046 1.11752
rclavicle -3.9906e-014 -5.56597e-015
rhumerus 363.418 36.0072 -414.383
rradius 35.0777
rwrist -22.1228
rhand -4.16287 6.59272
rfingers 7.12502
rthumb 21.5976 -22.2229
lclavicle -3.9906e-014 -5.56597e-015
lhumerus -20.3313 8.4765 8.61468
lradius 19.0646
lwrist -44.8408
lhand 1.19207 21.16
lfingers 7.12502
lthumb 26.7317 49.2917
rfemur -64.6631 -32.5952 35.816
rtibia 44.9263
rfoot -20.7832 -42.0942
rtoes 47.71
lfemur -6.6448 -7.09064 -19.8297
ltibia 19.3989
lfoot -41.6982 27.5813
ltoes -4.08849
491
root 0.360693 16.635 16.1354 -158.911 -49.9562 -184.168
lowerback -12.6543 1.85718 -4.06744
upperback -8.0584 2.2142 0.996121
thorax -1.59843 1.00938 3.57196
lowerneck -9.72068 -14.805 -13.8066
upperneck 27.2126 -21.8383 5.96615
head 12.8667 -10.9313 0.967489
rclavicle 5.92378e-014 7.95139e-016
rhumerus 364.405 37.8831 -413.76
rradius 37.7003
rwrist -24.1172
rhand -3.28252 7.06421
rfingers 7.12502
rthumb 22.4428 -21.6519
lclavicle 5.92378e-014 7.95139e-016
lhumerus -20.5251 8.28956 8.46485
lradius 19.1999
lwrist -44.3742
lhand 1.75872 21.3477
lfingers 7.12502
lthumb 27.2738 49.3953
rfemur -65.7102 -31.2713 36.2345
rtibia 44.7941
rfoot -26.3869 -42.9214
rtoes 49.9885
lfemur -6.52291 -6.94603 -20.1956
ltibia 17.8963
lfoot -41.8142 28.2357
ltoes -3.92296
492
root 0.330714 16.6266 16.1376 -159.288 -50.9576 -183.656
lowerback -12.0605 1.73961 -2.43773
upperback -8.12649 1.89339 1.00547
thorax -1.88215 0.795246 2.61373
lowerneck -10.0103 -14.9628 -14.1429
upperneck 27.3076 -21.9798 5.99908
head 13.03 -10.9963 0.960421
rclavicle 1.21259e-014 1.43125e-014
rhumerus 365.783 40.1259 -412.9
rradius 40.2794
rwrist -26.1445
rhand -1.71506 7.59531
rfingers 7.12502
rthumb 23.9467 -20.9314
lclavicle 1.21259e-014 1.43125e-014
lhumerus -21.0284 8.48886 7.91568
lradius 19.2283
lwrist -44.1313
lhand 1.91306 21.4317
lfingers 7.12502
lthumb 27.4214 49.456
rfemur -66.7092 -33.4918 38.9592
rtibia 44.1744
rfoot -28.3622 -42.7586
rtoes 51.0319
lfemur -6.38312 -7.15261 -19.5407
ltibia 17.8503
lfoot -40.7831 28.4964
ltoes -6.63286
493
root 0.321346 16.5857 16.0463 -158.471 -51.1488 -184.619
lowerback -12.1306 1.95255 -3.11654
upperback -8.31745 2.22097 0.428492
thorax -2.07734 0.970474 2.42465
lowerneck -8.90976 -15.2553 -13.7861
upperneck 26.9356 -22.7913 6.43505
head 12.7677 -11.3444 1.01642
rclavicle -7.56376e-014 -2.70347e-014
rhumerus 365.456 41.3747 -413.036
rradius 42.9067
rwrist -28.2804
rhand -0.609053 7.86299
rfingers 7.12502
rthumb 25.0069 -20.5203
lclavicle -7.56376e-014 -2.70347e-014
lhumerus -19.7549 7.41001 7.71722
lradius 19.2141
lwrist -42.9458
lhand 1.88433 21.3027
lfingers 7.12502
lthumb 27.394 49.3314
rfemur -66.8078 -33.8864 38.8991
rtibia 43.5599
rfoot -33.1908 -42.6354
rtoes 53.2334
lfemur -6.02229 -6.88413 -19.8449
ltibia 17.5576
lfoot -40.1164 28.2119
ltoes -8.37057
